<svg id="Layer_1" data-name="Layer 1" xmlns="http://www.w3.org/2000/svg" viewBox="0 0 22 24"><defs><style>.cls-1{fill:#fff;fill-rule:evenodd;}</style></defs><title>github</title><path class="cls-1" d="M4.78,0h0L5,0l.42.08A13.74,13.74,0,0,1,6.73.5,7.69,7.69,0,0,1,9.49,2.09a9.85,9.85,0,0,1,3.4-.6H13a9.93,9.93,0,0,1,3.4.6A7.61,7.61,0,0,1,19.12.5,13.74,13.74,0,0,1,20.48.12L20.9,0,21,0h.05a.88.88,0,0,1,1,.66,7.36,7.36,0,0,1,0,3.2,6.87,6.87,0,0,1-.7,1.94A6.92,6.92,0,0,1,23,10a6.78,6.78,0,0,1-2.32,5.61,8.16,8.16,0,0,1-3.48,1.51,2.33,2.33,0,0,1,.11.28,4.29,4.29,0,0,1,.26,1.77v4a.89.89,0,0,1-1.77,0V19A2.83,2.83,0,0,0,15.65,18a2.76,2.76,0,0,0-.58-.92.87.87,0,0,1-.2-.91.88.88,0,0,1,.73-.58,7.91,7.91,0,0,0,4-1.36c.94-.76,1.65-2,1.66-4.24a5.53,5.53,0,0,0-1.6-3.47.87.87,0,0,1,0-1.17,4.39,4.39,0,0,0,.75-1.79,6,6,0,0,0,.12-1.58l-.76.23a5.23,5.23,0,0,0-2.41,1.52.88.88,0,0,1-1.1.25,7.51,7.51,0,0,0-3.27-.68,7.57,7.57,0,0,0-3.27.68.88.88,0,0,1-1.1-.25A5.23,5.23,0,0,0,6.14,2.17l-.76-.23A6.48,6.48,0,0,0,5.5,3.52a4.39,4.39,0,0,0,.75,1.79.87.87,0,0,1,0,1.17A5.43,5.43,0,0,0,4.62,10c0,2.24.72,3.48,1.66,4.24a7.91,7.91,0,0,0,4,1.36.88.88,0,0,1,.72.58.87.87,0,0,1-.19.91,2.58,2.58,0,0,0-.73,2v4.08a.89.89,0,0,1-1.77,0V20.49a6,6,0,0,1-2.46-.1A5,5,0,0,1,3.76,19.2c-.26-.24-.48-.48-.68-.7l-.15-.17c-.15-.16-.27-.3-.41-.44a1.86,1.86,0,0,0-.85-.59.89.89,0,0,1,.43-1.72,3.7,3.7,0,0,1,1.7,1.08l.47.51.12.14c.2.22.38.41.57.59a3.19,3.19,0,0,0,1.33.78,4.29,4.29,0,0,0,2,0,4.36,4.36,0,0,1,.26-1.33,2.36,2.36,0,0,1,.12-.28,8.16,8.16,0,0,1-3.48-1.51c-1.45-1.16-2.31-3-2.33-5.61A7,7,0,0,1,4.46,5.81a6.86,6.86,0,0,1-.69-1.94,7.21,7.21,0,0,1,0-3.2A.89.89,0,0,1,4.78,0Z" transform="translate(-1 0)"/></svg>