<?xml version="1.0" standalone="no"?>
<!DOCTYPE svg PUBLIC "-//W3C//DTD SVG 20010904//EN"
 "http://www.w3.org/TR/2001/REC-SVG-20010904/DTD/svg10.dtd">
<svg version="1.0" xmlns="http://www.w3.org/2000/svg"
 width="2652.000000pt" height="1942.000000pt" viewBox="0 0 2652.000000 1942.000000"
 preserveAspectRatio="xMidYMid meet">

<g transform="translate(0.000000,1942.000000) scale(0.100000,-0.100000)"
fill="#000000" stroke="none">
<path d="M20446 15841 c-6 -10 22 -29 215 -144 167 -100 223 -131 215 -119 -3
5 -37 31 -76 58 -314 216 -338 231 -354 205z"/>
<path d="M5875 15764 c-23 -12 -175 -120 -219 -157 -26 -21 111 42 213 98 41
23 76 46 78 52 6 16 -44 22 -72 7z"/>
<path d="M5555 15550 c-3 -5 -2 -10 4 -10 5 0 13 5 16 10 3 6 2 10 -4 10 -5 0
-13 -4 -16 -10z"/>
<path d="M9345 13299 c-147 -10 -270 -42 -367 -95 -14 -7 -33 -14 -42 -14 -21
0 -312 -118 -346 -141 -8 -5 -30 -16 -49 -25 -18 -8 -38 -20 -45 -25 -6 -5
-58 -43 -116 -83 -182 -129 -293 -239 -481 -481 -110 -141 -143 -192 -233
-367 -113 -220 -178 -404 -212 -602 -48 -283 -53 -332 -49 -551 2 -115 6 -232
9 -260 3 -27 8 -84 11 -125 11 -141 27 -222 67 -344 21 -66 41 -128 43 -137 2
-9 8 -25 13 -35 6 -11 18 -46 27 -79 10 -33 22 -69 28 -80 19 -36 79 -159 112
-231 50 -107 168 -280 245 -359 38 -38 88 -90 112 -115 70 -72 206 -193 242
-215 47 -29 82 -53 157 -110 36 -27 94 -63 130 -80 35 -16 66 -33 67 -37 2 -5
13 -8 25 -8 11 0 62 -20 111 -44 111 -55 300 -119 439 -149 87 -18 132 -22
302 -21 177 0 214 3 325 27 132 28 146 32 280 80 237 85 380 153 475 229 77
61 383 348 452 425 135 149 239 311 302 468 11 28 41 97 67 155 25 58 48 118
51 135 3 16 14 48 26 70 23 46 33 81 53 185 97 523 92 946 -17 1310 -90 302
-102 334 -220 570 -94 188 -166 292 -298 430 -282 293 -360 358 -564 475 -169
97 -272 138 -487 195 -80 21 -158 43 -175 49 -36 12 -342 19 -470 10z"/>
<path d="M16781 13298 c-30 -4 -59 -12 -65 -17 -6 -5 -31 -12 -56 -16 -25 -3
-72 -15 -105 -25 -57 -18 -118 -33 -140 -34 -13 -1 -81 -24 -120 -41 -16 -7
-55 -22 -85 -34 -99 -39 -354 -192 -396 -238 -12 -13 -26 -23 -31 -23 -5 0
-44 -35 -86 -77 -42 -43 -98 -98 -124 -123 -75 -71 -195 -205 -211 -237 -8
-15 -27 -44 -42 -63 -46 -60 -120 -170 -120 -178 0 -11 -33 -74 -57 -108 -11
-16 -35 -63 -53 -104 -18 -41 -37 -80 -42 -87 -5 -7 -7 -17 -3 -22 3 -6 -1
-23 -9 -39 -8 -16 -12 -32 -9 -36 4 -3 2 -6 -4 -6 -6 0 -13 -10 -16 -22 -3
-13 -15 -48 -26 -78 -12 -30 -28 -82 -36 -115 -9 -33 -18 -69 -20 -80 -3 -11
-10 -51 -16 -90 -6 -38 -13 -83 -15 -100 -3 -16 -6 -174 -8 -350 -5 -409 13
-565 99 -871 43 -149 167 -437 211 -485 8 -8 14 -19 14 -23 0 -4 24 -44 53
-89 28 -45 57 -89 62 -98 91 -142 96 -149 218 -268 126 -124 165 -157 242
-206 34 -22 94 -61 131 -86 71 -48 392 -209 454 -227 140 -42 184 -54 252 -71
76 -20 95 -23 258 -41 142 -15 210 -15 335 4 145 22 432 106 471 137 6 5 42
20 80 34 121 46 268 132 429 251 102 75 311 286 380 382 33 46 77 107 98 135
50 68 107 154 107 163 0 4 6 15 14 23 35 39 164 315 170 364 1 9 8 23 14 29 7
7 12 30 12 53 0 23 4 45 9 51 17 18 71 228 71 275 0 17 4 38 9 47 15 30 21
109 27 415 7 334 -4 461 -56 617 -10 30 -22 78 -26 105 -4 28 -9 55 -10 60 -2
6 -12 44 -22 85 -17 68 -45 142 -104 270 -65 142 -114 225 -218 365 -53 72
-105 144 -116 160 -43 67 -89 123 -149 180 -66 62 -189 176 -215 199 -20 18
-121 81 -142 88 -9 4 -56 33 -105 66 -85 57 -171 102 -194 102 -6 0 -41 15
-79 34 -72 37 -132 51 -268 66 -46 5 -91 15 -99 22 -8 6 -40 16 -72 20 -82 12
-387 17 -450 6z"/>
<path d="M5960 3154 c0 -5 26 -24 58 -42 31 -17 82 -50 112 -72 105 -76 195
-123 175 -90 -3 6 0 10 7 10 20 0 -17 22 -167 100 -77 39 -150 79 -162 87 -13
9 -23 11 -23 7z"/>
<path d="M20366 3066 c-89 -48 -136 -86 -105 -86 14 0 184 107 200 126 16 19
17 19 -95 -40z"/>
<path d="M20179 2961 c17 -11 -3 -25 -21 -15 -7 4 -10 3 -5 -1 4 -5 -1 -17
-10 -27 -16 -18 -16 -18 3 -11 33 14 84 47 84 55 0 4 -15 8 -32 8 -23 0 -29
-3 -19 -9z"/>
</g>
</svg>
